<?xml version="1.0" encoding="UTF-8"?>
<svg version="1.1" xmlns="http://www.w3.org/2000/svg" width="512" height="512">
<path d="M0 0 C12.29228945 -0.06976256 24.58453116 -0.12294404 36.87697887 -0.15543652 C42.58594484 -0.17103771 48.29477454 -0.19217393 54.00366211 -0.22631836 C59.52149594 -0.25911051 65.03919936 -0.27689464 70.55712318 -0.28463173 C72.65366987 -0.29013978 74.75021008 -0.30089486 76.84670067 -0.31719017 C96.82944348 -0.46621653 112.00273496 1.46450214 127.515625 15.265625 C134.12935589 22.54488856 138.87072772 31.03715603 143.5625 39.625 C148.29611514 48.18610473 153.1079057 56.68979109 158.0625 65.125 C162.61213911 72.87829851 167.09483701 80.66369336 171.5 88.5 C175.92836007 96.37638074 180.43140017 104.20413317 185 112 C189.56860165 119.79586993 194.07147891 127.62370797 198.5 135.5 C202.86969588 143.26989237 207.30711014 150.99549468 211.8125 158.6875 C216.88328692 167.34673501 221.90200841 176.03429694 226.875 184.75 C227.37441101 185.62520798 227.37441101 185.62520798 227.88391113 186.51809692 C229.57781167 189.48722636 231.27085374 192.45684417 232.96337891 195.42675781 C236.32652044 201.32801676 239.69368174 207.22698012 243.0625 213.125 C243.39359772 213.70469543 243.72469543 214.28439087 244.06582642 214.88165283 C251.3376553 227.6106208 258.66488261 240.30742721 266 253 C274.4355981 267.59682746 282.86319532 282.19799412 291.20166016 296.85058594 C294.29338945 302.28000143 297.39995323 307.69808501 300.5703125 313.08203125 C301.12050049 314.02328857 301.67068848 314.9645459 302.23754883 315.93432617 C303.24437998 317.65441394 304.259099 319.36992447 305.28393555 321.0793457 C310.52578889 330.07411396 312.52950945 338.43255022 312.5 348.8125 C312.52835938 349.70775391 312.55671875 350.60300781 312.5859375 351.52539062 C312.62177839 364.11450463 306.41700423 374.65251072 300.125 385.1875 C299.1254362 386.89020523 298.12588791 388.5929198 297.1272583 390.2961731 C296.09977541 392.04601223 295.06825651 393.79342231 294.03613281 395.54052734 C290.81476734 401.00230178 287.66165018 406.50352856 284.5 412 C283.26983749 414.13298915 282.03936685 416.26580061 280.80859375 418.3984375 C280.19226074 419.46674805 279.57592773 420.53505859 278.94091797 421.63574219 C273.29394531 431.42382813 267.64697266 441.21191406 262 451 C258.05790462 449.68596821 257.69942468 448.21143347 255.69921875 444.62109375 C255.05919922 443.48478516 254.41917969 442.34847656 253.75976562 441.17773438 C253.06900198 439.93099426 252.37824699 438.68424934 251.6875 437.4375 C250.60314086 435.50489815 249.5154683 433.57418432 248.42776489 431.64346313 C247.6887897 430.33106232 246.95090406 429.01804745 246.21408081 427.70443726 C242.87898564 421.76185186 239.4516282 415.87561141 236 410 C230.5950207 400.7728344 225.27346745 391.50003762 219.97949219 382.20898438 C215.36497196 374.11255867 210.70904745 366.04193491 206 358 C200.5964354 348.77199471 195.27347639 339.5000533 189.97949219 330.20898438 C185.36497196 322.11255867 180.70904745 314.04193491 176 306 C170.5964354 296.77199471 165.27347639 287.5000533 159.97949219 278.20898438 C155.36497196 270.11255867 150.70904745 262.04193491 146 254 C140.94369077 245.36502443 135.95392878 236.69393681 131 228 C125.46014067 218.27875494 119.86625068 208.59105132 114.21655273 198.93310547 C108.06233258 188.40915375 101.97630004 177.84619863 95.89111328 167.28222656 C92.76319852 161.85340058 89.63141552 156.42680719 86.5 151 C85.24998121 148.83334417 83.99998122 146.6666775 82.75 144.5 C82.13125 143.4275 81.5125 142.355 80.875 141.25 C64 112 47.125 82.75 30.25 53.5 C29.63036377 52.4260498 29.01072754 51.35209961 28.37231445 50.24560547 C27.13096525 48.09376086 25.88991371 45.94174452 24.64916992 43.78955078 C21.74019997 38.74447938 18.82839477 33.70111579 15.90567017 28.66400146 C14.8725706 26.88319999 13.84043829 25.10184142 12.80859375 23.3203125 C11.51493912 21.08742917 10.21947836 18.8555909 8.921875 16.625 C8.33535156 15.61179687 7.74882812 14.59859375 7.14453125 13.5546875 C6.63253174 12.67280762 6.12053223 11.79092773 5.59301758 10.88232422 C4.30306098 8.54834297 3.08772464 6.20629009 1.9004364 3.81985474 C1.5435609 3.10336321 1.18668539 2.38687168 0.81899548 1.64866829 C0.54872697 1.10460775 0.27845846 0.56054722 0 0 Z " fill="#000000" transform="translate(200,30)"/>
<path d="M0 0 C40.3406836 -0.38920394 80.6811223 -0.6887092 121.02330866 -0.8681106 C125.78718931 -0.88937234 130.55106627 -0.91137584 135.31494141 -0.93383789 C136.2633338 -0.93829717 137.21172619 -0.94275645 138.18885775 -0.94735085 C153.54067772 -1.02130264 168.8914143 -1.15532595 184.24259178 -1.31159753 C199.99720533 -1.47063706 215.75125197 -1.56501155 231.50663531 -1.59950441 C241.22748697 -1.62282004 250.94527672 -1.69641241 260.66518553 -1.83457994 C267.33278943 -1.92452469 273.99881347 -1.95158634 280.66697983 -1.92952342 C284.51427319 -1.91864167 288.35622469 -1.93515946 292.20256424 -2.02649307 C314.66548381 -2.53397427 314.66548381 -2.53397427 320.1809907 1.65738416 C323.64032313 5.6236996 325.5917039 9.96503158 327.25003934 14.91810048 C328.36834573 18.02253205 329.99775465 20.62993783 331.73046875 23.43359375 C332.88355831 25.43446621 334.03589289 27.43577394 335.1875 29.4375 C336.4830528 31.68620951 337.77862632 33.93490708 339.07421875 36.18359375 C339.72438965 37.31265137 340.37456055 38.44170898 341.04443359 39.60498047 C344.19332054 45.07169981 347.3468438 50.53574242 350.5 56 C351.73569583 58.14191627 352.97137283 60.2838434 354.20703125 62.42578125 C356.50249458 66.40462432 358.79823414 70.38330773 361.09432983 74.36178589 C362.12673478 76.15066918 363.15907956 77.93958717 364.19140625 79.72851562 C365.48685948 81.97337636 366.7824257 84.2181719 368.078125 86.46289062 C369.2219008 88.44501637 370.36441823 90.42786907 371.50537109 92.41162109 C372.43293112 94.01795749 373.36695074 95.62060459 374.31103516 97.21728516 C377 101.79076325 377 101.79076325 377 104 C339.9459045 104.09167689 302.89182616 104.16210023 265.83764008 104.20426132 C261.45702679 104.20926378 257.07641373 104.21444111 252.69580078 104.21972656 C251.82374762 104.2207758 250.95169446 104.22182505 250.05321544 104.22290608 C235.95726218 104.24028254 221.86137458 104.27180492 207.76546019 104.30861118 C193.28766815 104.34609759 178.80991036 104.36825208 164.33207178 104.37635398 C155.40786669 104.38182583 146.48384722 104.39906989 137.5596993 104.43166587 C131.42920359 104.45290896 125.298803 104.45917804 119.16827321 104.45400551 C115.63814948 104.45145884 112.10834871 104.45519335 108.57828331 104.4768219 C72.3511539 104.66604748 72.3511539 104.66604748 58 94 C56.97712891 93.28263672 56.97712891 93.28263672 55.93359375 92.55078125 C43.662113 83.0169694 36.52732095 65.40455721 28.98451233 52.2144165 C25.42330713 45.98731685 21.83658105 39.77501179 18.25 33.5625 C17.63229736 32.49032227 17.01459473 31.41814453 16.37817383 30.31347656 C13.4723909 25.27116813 10.55698003 20.23512534 7.61328125 15.21484375 C7.09540039 14.32917725 6.57751953 13.44351074 6.04394531 12.53100586 C5.08211292 10.88774342 4.11681477 9.24650284 3.14746094 7.60766602 C-0 2.22318174 -0 2.22318174 0 0 Z " fill="#000000" transform="translate(0,378)"/>
<path d="M0 0 C3.89025583 3.4149757 5.98223036 7.25032696 8.375 11.75 C12.33454021 19.03429936 16.42679103 26.22564497 20.625 33.375 C25.80871932 42.217062 30.92702675 51.09414076 36 60 C40.95348205 68.69418741 45.94369473 77.36503119 51 86 C56.05630923 94.63497557 61.04607122 103.30606319 66 112 C71.53904829 121.71982185 77.13146218 131.406499 82.78125 141.0625 C87.67723943 149.43342071 92.52659866 157.83066418 97.36181641 166.23681641 C100.56949467 171.80795848 103.79593753 177.36712345 107.05859375 182.90625 C107.70957031 184.01355469 108.36054688 185.12085938 109.03125 186.26171875 C110.27884348 188.38109374 111.53000884 190.49837113 112.78515625 192.61328125 C113.33945312 193.55558594 113.89375 194.49789062 114.46484375 195.46875 C114.955896 196.29826172 115.44694824 197.12777344 115.95288086 197.98242188 C117 200 117 200 117 202 C40.11 202 -36.78 202 -116 202 C-114.54877547 198.37193866 -113.12455815 195.25771216 -111.234375 191.88671875 C-110.68144775 190.89873291 -110.12852051 189.91074707 -109.55883789 188.89282227 C-108.96192139 187.83506592 -108.36500488 186.77730957 -107.75 185.6875 C-107.12665771 184.57882568 -106.50331543 183.47015137 -105.86108398 182.32788086 C-100.52126695 172.86059123 -95.05876975 163.46700035 -89.5625 154.08984375 C-85.8678669 147.78429581 -82.21147319 141.45705564 -78.5625 135.125 C-77.93996338 134.04484619 -77.31742676 132.96469238 -76.67602539 131.85180664 C-75.41423174 129.66203666 -74.15259466 127.47217645 -72.89111328 125.28222656 C-69.76319852 119.85340058 -66.63141552 114.42680719 -63.5 109 C-62.24998121 106.83334417 -60.99998122 104.6666775 -59.75 102.5 C-52.25 89.5 -44.75 76.5 -37.25 63.5 C-36.63084717 62.4267749 -36.01169434 61.3535498 -35.3737793 60.24780273 C-34.1279423 58.08840605 -32.88201182 55.92906331 -31.63598633 53.76977539 C-28.44651047 48.24232403 -25.25883115 42.71384879 -22.07421875 37.18359375 C-16.45024164 27.41988106 -10.82522407 17.65696476 -5.125 7.9375 C-4.71403076 7.23488037 -4.30306152 6.53226074 -3.87963867 5.80834961 C-1.12047717 1.12047717 -1.12047717 1.12047717 0 0 Z " fill="#000000" transform="translate(158,103)"/>
</svg>
