<?xml version="1.0" encoding="UTF-8"?>
<svg version="1.1" xmlns="http://www.w3.org/2000/svg" width="512" height="512">
<path d="M0 0 C27.51375 -0.061875 55.0275 -0.12375 83.375 -0.1875 C96.36367432 -0.22846802 96.36367432 -0.22846802 109.61474609 -0.27026367 C120.26098633 -0.28381348 120.26098633 -0.28381348 125.25894165 -0.28633118 C128.71904375 -0.28910463 132.17900508 -0.30026022 135.6390686 -0.31672668 C140.07463913 -0.33755069 144.51000972 -0.34342865 148.94562459 -0.33921683 C150.55970677 -0.34009543 152.17379713 -0.34589665 153.78783679 -0.35764539 C181.49387834 -0.54968797 209.04050202 5.81347863 229.75 25.375 C245.14235643 41.68575478 250.38408547 62.36220973 250.1484375 84.25390625 C249.39034251 103.38582973 243.83672561 120.12605254 229.87890625 133.59375 C224.96430655 137.70147512 219.57968972 140.86907693 214 144 C216.35024879 146.35024879 218.5504257 147.28340406 221.5625 148.6875 C227.33220958 151.53094539 232.17039387 154.76825614 237 159 C237.61488281 159.53238281 238.22976562 160.06476563 238.86328125 160.61328125 C253.52090788 174.23089889 259.20275646 193.88986594 260.28125 213.2578125 C261.13465219 238.66134367 253.42830968 262.94019997 236.1875 281.875 C220.50575116 298.39310878 201.46859136 306.31603735 179.4375 310.1875 C178.04845459 310.43826294 178.04845459 310.43826294 176.63134766 310.6940918 C118.52767615 320.23709623 58.88213291 313 0 313 C0 209.71 0 106.42 0 0 Z M64 55 C64 77.44 64 99.88 64 123 C77.24608543 123.0583515 77.24608543 123.0583515 90.4921875 123.09765625 C95.909546 123.10952555 101.32683572 123.12343199 106.74414062 123.15087891 C111.12083302 123.17291001 115.49745146 123.18463103 119.8741951 123.18975449 C121.52839952 123.1933968 123.18260076 123.20050554 124.83677292 123.21146011 C133.51735725 123.26656131 142.08003665 123.04860671 150.71728516 122.12451172 C151.44440893 122.04837206 152.17153271 121.9722324 152.92069054 121.89378548 C163.26936975 120.66410384 173.11844628 117.17290701 180 109 C185.82464481 100.44669275 187.35189293 89.48653313 185.53515625 79.42578125 C183.56626532 71.8181731 179.90521302 65.77220797 173.4375 61.1875 C163.480793 55.51160369 150.63124948 54.83302111 139.38085938 54.88647461 C138.56039124 54.88632858 137.7399231 54.88618256 136.89459229 54.8860321 C134.2109503 54.88672294 131.5273797 54.89447611 128.84375 54.90234375 C126.97188352 54.90421088 125.10001656 54.90563339 123.22814941 54.90663147 C118.32257721 54.91043341 113.41703503 54.92024368 108.51147461 54.93133545 C102.61426412 54.94340716 96.71704355 54.94796288 90.81982422 54.95378876 C81.87986199 54.96345683 72.93996552 54.9826296 64 55 Z M64 175 C64 202.06 64 229.12 64 257 C79.85642947 257.08738728 79.85642947 257.08738728 95.71289062 257.14648438 C102.18863381 257.16435542 108.66424865 257.18540171 115.13989258 257.22631836 C120.36595369 257.25912944 125.59187698 257.27689854 130.81803322 257.28463173 C132.80293761 257.29013644 134.78783523 257.3008848 136.77268028 257.31719017 C151.10503079 257.4301508 164.71459506 257.42358806 177 249 C177.62519531 248.58105469 178.25039062 248.16210938 178.89453125 247.73046875 C185.70131129 242.58460236 190.30019871 234.15119494 191.75 225.76953125 C192.99530616 211.9738739 193.00239406 199.0632388 183.82421875 187.78125 C169.31342436 173.61225163 146.94749655 174.69222115 128.16015625 174.8046875 C126.29829563 174.80842792 124.43643301 174.81127001 122.5745697 174.81326294 C117.7265966 174.82081854 112.87874758 174.84039543 108.03082275 174.8626709 C102.18602308 174.88694761 96.34118141 174.89594883 90.49634552 174.90757751 C81.66414464 174.92682629 72.83221481 174.96520467 64 175 Z " fill="#000000" transform="translate(0,96)"/>
<path d="M0 0 C23.33611223 20.30078574 35.70903646 47.95318013 38.79296875 78.4296875 C38.79296875 90.6396875 38.79296875 102.8496875 38.79296875 115.4296875 C-17.30703125 115.4296875 -73.40703125 115.4296875 -131.20703125 115.4296875 C-126.29217129 141.87636701 -126.29217129 141.87636701 -109.51953125 161.2421875 C-94.95116986 170.60125603 -77.58153692 173.11932639 -60.64453125 170.25390625 C-47.0256431 166.9884683 -38.26168358 160.64502619 -30.20703125 149.4296875 C-29.80651047 148.73474182 -29.40598969 148.03979614 -28.99333191 147.3237915 C-27.20703125 145.4296875 -27.20703125 145.4296875 -24.45454407 144.94866943 C-23.34201767 144.95755188 -22.22949127 144.96643433 -21.08325195 144.97558594 C-19.82217117 144.97588806 -18.56109039 144.97619019 -17.26179504 144.97650146 C-15.88546112 144.99692804 -14.50913364 145.01779202 -13.1328125 145.0390625 C-11.7246328 145.04652402 -10.3164427 145.05221737 -8.9082489 145.05621338 C-5.20408396 145.07147712 -1.50054763 145.11076414 2.20336914 145.1550293 C5.98380021 145.19596674 9.76433298 145.21422106 13.54492188 145.234375 C20.96122391 145.27725867 28.37700821 145.3455177 35.79296875 145.4296875 C35.65918594 146.84778292 35.51850202 148.26522816 35.375 149.68237305 C35.29741455 150.4717778 35.2198291 151.26118256 35.13989258 152.07450867 C34.60177627 155.7276453 33.31170706 158.89692671 31.79296875 162.2421875 C31.48391602 162.93086914 31.17486328 163.61955078 30.85644531 164.32910156 C27.70248802 171.06525415 23.60774629 176.7661511 18.79296875 182.4296875 C17.94734375 183.43773437 17.10171875 184.44578125 16.23046875 185.484375 C-1.40785955 205.92784284 -27.34094412 218.50828192 -54.19921875 221.21875 C-72.21690025 222.48232766 -91.6633195 223.14851933 -109.20703125 218.4296875 C-109.92101074 218.24164551 -110.63499023 218.05360352 -111.37060547 217.85986328 C-138.55821537 210.40624809 -163.67620993 194.07442018 -178.76953125 169.9921875 C-197.47247299 136.42937424 -198.50319067 91.59899758 -188.625 55.14453125 C-180.91807639 28.66639495 -164.78157145 5.00439829 -140.4453125 -8.7734375 C-98.69778444 -31.12376003 -37.6712688 -31.35778218 0 0 Z M-113.20703125 39.4296875 C-121.85994664 48.59896132 -129.20703125 61.50203395 -129.20703125 74.4296875 C-94.88703125 74.4296875 -60.56703125 74.4296875 -25.20703125 74.4296875 C-27.61189526 58.79807144 -30.69225873 46.91195563 -43.51953125 37.1796875 C-63.82595028 23.1467963 -94.55797378 21.56765447 -113.20703125 39.4296875 Z " fill="#000000" transform="translate(473.20703125,194.5703125)"/>
<path d="M0 0 C44.88 0 89.76 0 136 0 C136 13.2 136 26.4 136 40 C91.12 40 46.24 40 0 40 C0 26.8 0 13.6 0 0 Z " fill="#000000" transform="translate(327,110)"/>
</svg>
