<?xml version="1.0" encoding="utf-8"?>
<!-- Generator: Adobe Illustrator 25.0.0, SVG Export Plug-In . SVG Version: 6.00 Build 0)  -->
<svg version="1.1" id="Calque_1" xmlns="http://www.w3.org/2000/svg" xmlns:xlink="http://www.w3.org/1999/xlink" x="0px" y="0px"
	 viewBox="0 0 200 200" style="enable-background:new 0 0 200 200;" xml:space="preserve">
<style type="text/css">
	.st0{fill:url(#SVGID_1_);stroke:#27272A;}
</style>
<linearGradient id="SVGID_1_" gradientUnits="userSpaceOnUse" x1="145.2703" y1="29.3784" x2="45.2703" y2="185.3784">
	<stop  offset="0" style="stop-color:#111111"/>
	<stop  offset="1" style="stop-color:#222224"/>
</linearGradient>
<path class="st0" d="M100,0.5C45,0.5,0.5,45,0.5,100S45,199.5,100,199.5s99.5-44.5,99.5-99.5S155,0.5,100,0.5z M65.1,145.6
	c-13.6-9.6-22.3-27.6-21.5-47c0.6-13.9,5.6-25.4,13.4-34.2c23.6-26.6,64.6-27.9,91.4-6.6l-16.9,22.7c-21.5-14.1-52.6-6-50.3,22.1
	c2.3,28.2,35.6,29.5,53.7,15.4l15.1,24.1C125.4,159.5,90.8,163.9,65.1,145.6z"/>
</svg>
