<svg id="Calque_1" data-name="Calque 1" xmlns="http://www.w3.org/2000/svg" viewBox="0 0 980 980"><path d="M0,857V122a21.75,21.75,0,0,0,.88-3.3A133,133,0,0,1,95.35,5.78C104.05,3.22,113.11,1.9,122,0H858a23,23,0,0,0,3.3.88A133.13,133.13,0,0,1,975,97.72c2.28,8.26,3.4,16.85,5,25.28V857c-.32,1.59-.71,3.17-1,4.77-8.19,54.74-38.29,91.91-90.13,111C878.47,976.56,867,977.65,856,980H725c0-1.5-.12-3-.12-4.49q0-204.48,0-409v-5.41H841.5c5.28-48.57,10.5-96.63,15.79-145.28H724.88c0-6.13-.07-11.75,0-17.38.33-23.31-.07-46.67,1.28-69.93,1.4-24.28,12.94-36,36.89-39.83a107.06,107.06,0,0,1,16.42-1c23.17-.1,46.33,0,69.5,0h5.94V143.94c-1.57-.1-2.86-.26-4.15-.26q-63.24,0-126.48,0a220.31,220.31,0,0,0-67.85,10.27c-40.85,13-69.84,39-86.45,78.58a206.61,206.61,0,0,0-15.81,74.33c-1,34.31-.71,68.64-1,103,0,1.93,0,3.87,0,6.33H469.4V561.49h83.82v6.58q0,203,0,405.95c0,2-.14,4-.21,6H123c-1.28-.3-2.55-.69-3.84-.88-55-7.85-92.44-37.83-111.81-89.77C3.52,879.08,2.38,867.81,0,857Z" transform="translate(0 0)"/></svg>