<?xml version="1.0" encoding="UTF-8"?>
<svg version="1.1" xmlns="http://www.w3.org/2000/svg" width="512" height="512">
<path d="M0 0 C0.96405762 0.01281006 1.92811523 0.02562012 2.92138672 0.03881836 C40.5144437 1.06696803 74.79418813 18.00179414 101 44.5 C121.55761865 66.30482337 140 98.69627639 140 129.5 C140.55526367 129.33991455 141.11052734 129.1798291 141.68261719 129.01489258 C161.809276 124.54300852 182.72845976 130.24284034 200 140.5 C203.26225401 142.60342348 206.13715201 144.88268825 209 147.5 C209.89203125 148.30050781 210.7840625 149.10101563 211.703125 149.92578125 C221.72664365 159.38787331 228.49382411 170.45940007 233 183.5 C233.3196875 184.42296875 233.639375 185.3459375 233.96875 186.296875 C239.98518687 207.35440403 236.35692109 229.99084233 226.0625 248.9453125 C223.45743839 253.53300864 220.56271539 257.60305782 217 261.5 C216.19949219 262.39203125 215.39898437 263.2840625 214.57421875 264.203125 C200.89771666 278.69111274 181.99961629 288.18372281 161.8938638 288.84923923 C158.02200595 288.91769017 154.15186036 288.91560807 150.27954102 288.90405273 C148.53368191 288.90976739 146.78782653 288.91673585 145.04197693 288.92485046 C140.33995978 288.94266457 135.6381304 288.94163722 130.93608975 288.93590808 C127.00171488 288.93280274 123.06737538 288.93892274 119.13300556 288.94494683 C109.85499739 288.95894835 100.57708143 288.95746399 91.29907227 288.94604492 C81.73590817 288.93453491 72.17302357 288.94869759 62.60989624 288.9754414 C54.38113833 288.99758949 46.15246824 289.00423876 37.92368263 288.99836498 C33.01635554 288.99499608 28.10920812 288.99740767 23.2019062 289.01461601 C18.59455631 289.0300716 13.98762246 289.02614517 9.38028908 289.00731087 C7.6912265 289.00362286 6.00213314 289.00673966 4.31309891 289.01719666 C2.00545823 289.03039265 -0.30080169 289.01887368 -2.60838318 289.00120544 C-3.89860099 289.00099616 -5.1888188 289.00078688 -6.51813412 289.00057125 C-11.9037657 288.22630469 -14.73933796 285.88347536 -18.34325409 281.9284668 C-20.67245576 277.10842135 -20.55414847 272.93360808 -20.50793457 267.64453125 C-20.51729451 266.00160347 -20.51729451 266.00160347 -20.52684355 264.32548523 C-20.54280207 260.65427138 -20.53015743 256.98371882 -20.51757812 253.3125 C-20.52299794 250.68098564 -20.5301198 248.04947431 -20.53881836 245.41796875 C-20.55659815 239.01182462 -20.55276609 232.60586803 -20.5411678 226.19971657 C-20.53213159 220.99299201 -20.53091028 215.78631999 -20.53526306 210.57958984 C-20.53587599 209.83833831 -20.53648893 209.09708677 -20.53712043 208.33337307 C-20.53839934 206.82750065 -20.5396962 205.32162824 -20.5410108 203.81575584 C-20.55241501 189.69756672 -20.53930542 175.57948151 -20.51780933 161.46130943 C-20.49993847 149.34915425 -20.50304262 137.23715242 -20.52148438 125.125 C-20.54289393 111.05708797 -20.55131638 96.98926699 -20.53903532 82.92134094 C-20.53776113 81.42103069 -20.53650365 79.92072043 -20.53526306 78.42041016 C-20.53464596 77.6822428 -20.53402886 76.94407545 -20.53339306 76.18353939 C-20.5299404 70.98350271 -20.53576666 65.78352382 -20.54518127 60.58349609 C-20.55757584 53.58371389 -20.54874225 46.58422627 -20.52560425 39.58447266 C-20.52030882 37.01335126 -20.52184508 34.44220551 -20.53065491 31.87109375 C-20.54156035 28.36555436 -20.52790568 24.86094842 -20.50793457 21.35546875 C-20.51685746 20.33426437 -20.52578034 19.31306 -20.53497362 18.26091003 C-20.47106131 12.49037724 -19.92455107 9.04241226 -16 4.5 C-10.91530388 -0.03990725 -6.50021646 -0.13238847 0 0 Z " fill="#000000" transform="translate(276,111.5)"/>
<path d="M0 0 C4.9659901 2.30563826 7.40888444 5.22794144 10 10 C10.56694517 13.21820787 10.54038707 16.37935321 10.50793457 19.640625 C10.51417453 20.60523651 10.5204145 21.56984802 10.52684355 22.56369019 C10.54278556 25.7927095 10.5301642 29.02097522 10.51757812 32.25 C10.52299868 34.56624797 10.53012097 36.88249249 10.53881836 39.19873047 C10.55706229 45.48791955 10.54997957 51.77684633 10.53730202 58.06604004 C10.52718001 64.64559642 10.53656548 71.22513024 10.54284668 77.8046875 C10.55139149 89.56210703 10.53815549 101.31941615 10.51780933 113.07681656 C10.49993868 123.73356185 10.50304291 134.39013285 10.52148438 145.046875 C10.5428985 157.42718625 10.55085424 169.80738638 10.53903532 182.18771362 C10.53279688 188.7394428 10.53197453 195.29105195 10.54518127 201.84277344 C10.55672961 208.00209514 10.54873215 214.16108745 10.52560425 220.32037354 C10.52031179 222.58188327 10.52184005 224.84342069 10.53065491 227.10491943 C10.54157232 230.19011315 10.5278919 233.27424885 10.50793457 236.359375 C10.51685746 237.25606903 10.52578034 238.15276306 10.53497362 239.07662964 C10.46624432 244.54761822 9.62831524 247.6520102 6 252 C2.18069828 255.62833663 -0.88279006 256.31000458 -6 256.5 C-11.11720994 256.31000458 -14.18069828 255.62833663 -18 252 C-22.34641616 246.79147432 -22.57247114 242.84489448 -22.50793457 236.359375 C-22.51417453 235.39476349 -22.5204145 234.43015198 -22.52684355 233.43630981 C-22.54278556 230.2072905 -22.5301642 226.97902478 -22.51757812 223.75 C-22.52299868 221.43375203 -22.53012097 219.11750751 -22.53881836 216.80126953 C-22.55706229 210.51208045 -22.54997957 204.22315367 -22.53730202 197.93395996 C-22.52718001 191.35440358 -22.53656548 184.77486976 -22.54284668 178.1953125 C-22.55139149 166.43789297 -22.53815549 154.68058385 -22.51780933 142.92318344 C-22.49993868 132.26643815 -22.50304291 121.60986715 -22.52148438 110.953125 C-22.5428985 98.57281375 -22.55085424 86.19261362 -22.53903532 73.81228638 C-22.53279688 67.2605572 -22.53197453 60.70894805 -22.54518127 54.15722656 C-22.55672961 47.99790486 -22.54873215 41.83891255 -22.52560425 35.67962646 C-22.52031179 33.41811673 -22.52184005 31.15657931 -22.53065491 28.89508057 C-22.54157232 25.80988685 -22.5278919 22.72575115 -22.50793457 19.640625 C-22.51685746 18.74393097 -22.52578034 17.84723694 -22.53497362 16.92337036 C-22.46624432 11.45238178 -21.62831524 8.3479898 -18 4 C-12.72867143 -1.00776214 -6.89190982 -0.92775709 0 0 Z " fill="#000000" transform="translate(214,144)"/>
<path d="M0 0 C4.97516058 2.30989598 7.3190473 5.27956019 10 10 C10.50336456 13.40771484 10.50336456 13.40771484 10.50793457 17.2109375 C10.51417453 17.91420166 10.5204145 18.61746582 10.52684355 19.34204102 C10.54273434 21.68670686 10.53018563 24.03032738 10.51757812 26.375 C10.52300102 28.06071578 10.53012462 29.74642682 10.53881836 31.43212891 C10.55703483 36.00239713 10.54999115 40.57230368 10.53730202 45.14257812 C10.52716566 49.92839524 10.53656946 54.71418166 10.54284668 59.5 C10.55012123 67.53651481 10.54054043 75.57288253 10.52148438 83.609375 C10.499716 92.89690947 10.50676751 102.18409269 10.52879 111.47161865 C10.54694947 119.44971724 10.54949964 127.42771017 10.53903532 135.40582275 C10.53280341 140.16904456 10.53195646 144.93210134 10.54518127 149.6953125 C10.55674712 154.17373067 10.54870072 158.65169654 10.52560425 163.13006592 C10.52032107 164.77235158 10.52182428 166.41467538 10.53065491 168.0569458 C10.54161012 170.30149625 10.52784933 172.54460365 10.50793457 174.7890625 C10.50642647 176.04412598 10.50491837 177.29918945 10.50336456 178.59228516 C9.73745068 183.7774259 7.23154593 186.83003137 3.5 190.375 C-1.66500009 192.77303575 -6.4002288 192.75381535 -12 192 C-16.97516058 189.69010402 -19.3190473 186.72043981 -22 182 C-22.50336456 178.59228516 -22.50336456 178.59228516 -22.50793457 174.7890625 C-22.51417453 174.08579834 -22.5204145 173.38253418 -22.52684355 172.65795898 C-22.54273434 170.31329314 -22.53018563 167.96967262 -22.51757812 165.625 C-22.52300102 163.93928422 -22.53012462 162.25357318 -22.53881836 160.56787109 C-22.55703483 155.99760287 -22.54999115 151.42769632 -22.53730202 146.85742188 C-22.52716566 142.07160476 -22.53656946 137.28581834 -22.54284668 132.5 C-22.55012123 124.46348519 -22.54054043 116.42711747 -22.52148438 108.390625 C-22.499716 99.10309053 -22.50676751 89.81590731 -22.52879 80.52838135 C-22.54694947 72.55028276 -22.54949964 64.57228983 -22.53903532 56.59417725 C-22.53280341 51.83095544 -22.53195646 47.06789866 -22.54518127 42.3046875 C-22.55674712 37.82626933 -22.54870072 33.34830346 -22.52560425 28.86993408 C-22.52032107 27.22764842 -22.52182428 25.58532462 -22.53065491 23.9430542 C-22.54161012 21.69850375 -22.52784933 19.45539635 -22.50793457 17.2109375 C-22.50642647 15.95587402 -22.50491837 14.70081055 -22.50336456 13.40771484 C-21.73745068 8.2225741 -19.23154593 5.16996863 -15.5 1.625 C-10.33499991 -0.77303575 -5.5997712 -0.75381535 0 0 Z " fill="#000000" transform="translate(150,208)"/>
<path d="M0 0 C4.97516058 2.30989598 7.3190473 5.27956019 10 10 C10.50336456 13.40771484 10.50336456 13.40771484 10.50793457 17.2109375 C10.51417453 17.91420166 10.5204145 18.61746582 10.52684355 19.34204102 C10.54273434 21.68670686 10.53018563 24.03032738 10.51757812 26.375 C10.52300102 28.06071578 10.53012462 29.74642682 10.53881836 31.43212891 C10.55703483 36.00239713 10.54999115 40.57230368 10.53730202 45.14257812 C10.52716566 49.92839524 10.53656946 54.71418166 10.54284668 59.5 C10.55012123 67.53651481 10.54054043 75.57288253 10.52148438 83.609375 C10.499716 92.89690947 10.50676751 102.18409269 10.52879 111.47161865 C10.54694947 119.44971724 10.54949964 127.42771017 10.53903532 135.40582275 C10.53280341 140.16904456 10.53195646 144.93210134 10.54518127 149.6953125 C10.55674712 154.17373067 10.54870072 158.65169654 10.52560425 163.13006592 C10.52032107 164.77235158 10.52182428 166.41467538 10.53065491 168.0569458 C10.54161012 170.30149625 10.52784933 172.54460365 10.50793457 174.7890625 C10.50642647 176.04412598 10.50491837 177.29918945 10.50336456 178.59228516 C9.73745068 183.7774259 7.23154593 186.83003137 3.5 190.375 C-1.66500009 192.77303575 -6.4002288 192.75381535 -12 192 C-16.97516058 189.69010402 -19.3190473 186.72043981 -22 182 C-22.50336456 178.59228516 -22.50336456 178.59228516 -22.50793457 174.7890625 C-22.51417453 174.08579834 -22.5204145 173.38253418 -22.52684355 172.65795898 C-22.54273434 170.31329314 -22.53018563 167.96967262 -22.51757812 165.625 C-22.52300102 163.93928422 -22.53012462 162.25357318 -22.53881836 160.56787109 C-22.55703483 155.99760287 -22.54999115 151.42769632 -22.53730202 146.85742188 C-22.52716566 142.07160476 -22.53656946 137.28581834 -22.54284668 132.5 C-22.55012123 124.46348519 -22.54054043 116.42711747 -22.52148438 108.390625 C-22.499716 99.10309053 -22.50676751 89.81590731 -22.52879 80.52838135 C-22.54694947 72.55028276 -22.54949964 64.57228983 -22.53903532 56.59417725 C-22.53280341 51.83095544 -22.53195646 47.06789866 -22.54518127 42.3046875 C-22.55674712 37.82626933 -22.54870072 33.34830346 -22.52560425 28.86993408 C-22.52032107 27.22764842 -22.52182428 25.58532462 -22.53065491 23.9430542 C-22.54161012 21.69850375 -22.52784933 19.45539635 -22.50793457 17.2109375 C-22.50642647 15.95587402 -22.50491837 14.70081055 -22.50336456 13.40771484 C-21.73745068 8.2225741 -19.23154593 5.16996863 -15.5 1.625 C-10.33499991 -0.77303575 -5.5997712 -0.75381535 0 0 Z " fill="#000000" transform="translate(86,208)"/>
<path d="M0 0 C4.96521615 2.30527893 7.43797409 5.20968336 10 10 C10.5763089 13.50250789 10.54688752 16.9566258 10.51757812 20.5 C10.5245874 21.54462402 10.53159668 22.58924805 10.53881836 23.66552734 C10.55639022 27.11062381 10.54477782 30.55489551 10.53125 34 C10.53394513 36.3984391 10.53782772 38.79687714 10.54284668 41.1953125 C10.54874066 46.21885595 10.54018159 51.24211467 10.52148438 56.265625 C10.49869537 62.70189072 10.51181892 69.13748922 10.53577423 75.57373047 C10.55023461 80.52544168 10.545625 85.47699495 10.53526306 90.42871094 C10.53259647 92.80175862 10.53586314 95.17482068 10.54518127 97.54785156 C10.55535031 100.86562028 10.53983934 104.18231145 10.51757812 107.5 C10.52567505 108.47888184 10.53377197 109.45776367 10.54211426 110.46630859 C10.47140556 116.16037885 9.83517225 119.49980593 6 124 C2.18069828 127.62833663 -0.88279006 128.31000458 -6 128.5 C-11.11720994 128.31000458 -14.18069828 127.62833663 -18 124 C-22.57407793 118.63277344 -22.57323692 114.22889928 -22.51757812 107.5 C-22.5245874 106.45537598 -22.53159668 105.41075195 -22.53881836 104.33447266 C-22.55639022 100.88937619 -22.54477782 97.44510449 -22.53125 94 C-22.53394513 91.6015609 -22.53782772 89.20312286 -22.54284668 86.8046875 C-22.54874066 81.78114405 -22.54018159 76.75788533 -22.52148438 71.734375 C-22.49869537 65.29810928 -22.51181892 58.86251078 -22.53577423 52.42626953 C-22.55023461 47.47455832 -22.545625 42.52300505 -22.53526306 37.57128906 C-22.53259647 35.19824138 -22.53586314 32.82517932 -22.54518127 30.45214844 C-22.55535031 27.13437972 -22.53983934 23.81768855 -22.51757812 20.5 C-22.52567505 19.52111816 -22.53377197 18.54223633 -22.54211426 17.53369141 C-22.47140556 11.83962115 -21.83517225 8.50019407 -18 4 C-12.72867143 -1.00776214 -6.89190982 -0.92775709 0 0 Z " fill="#000000" transform="translate(22,256)"/>
</svg>
