<?xml version="1.0" encoding="UTF-8"?>
<svg version="1.1" xmlns="http://www.w3.org/2000/svg" width="512" height="512">
<path d="M0 0 C2.46408107 -0.00135993 4.92816194 -0.00314315 7.39224243 -0.00531006 C13.31835744 -0.00934967 19.24446073 -0.00882365 25.17057538 -0.00589742 C29.99810721 -0.00361483 34.82563551 -0.00334304 39.65316772 -0.00442123 C40.69403606 -0.00465108 40.69403606 -0.00465108 41.75593203 -0.00488558 C43.16674113 -0.00520539 44.57755023 -0.0055296 45.98835933 -0.00585817 C59.13720487 -0.00869206 72.28604338 -0.00545903 85.43488777 -0.0000578 C96.65353546 0.00440832 107.8721728 0.00363179 119.09082031 -0.00097656 C132.2009781 -0.00635958 145.31112975 -0.00841756 158.42128849 -0.0053643 C159.82615725 -0.00504584 161.23102601 -0.00473146 162.63589478 -0.00442123 C163.67202849 -0.00418982 163.67202849 -0.00418982 164.72909421 -0.00395373 C169.53622506 -0.0030997 174.34335194 -0.0045271 179.15048218 -0.00690079 C185.65145786 -0.01004112 192.1524188 -0.00772348 198.65339279 -0.00200653 C201.01617781 -0.00070251 203.37896449 -0.00103198 205.74174881 -0.0032692 C226.52359159 -0.02110785 247.48220379 -0.02825715 268.14453125 2.44189453 C269.81866089 2.63755005 269.81866089 2.63755005 271.52661133 2.8371582 C296.41914046 5.90320017 322.28340241 12.43194686 339.109375 32.46923828 C346.06085819 41.85450115 350.11108086 51.95295889 352.89453125 63.19189453 C353.09320801 63.9747583 353.29188477 64.75762207 353.49658203 65.56420898 C358.16864484 85.85985802 357.45898271 106.92343982 357.44611382 127.60970736 C357.44502928 131.07281496 357.44996492 134.53590482 357.45471925 137.99900854 C357.46574337 146.1891317 357.46629283 154.37920898 357.46020508 162.56933594 C357.45417756 170.93989835 357.46646174 179.31029215 357.48777515 187.68082583 C357.50555419 194.93763705 357.51136701 202.19439542 357.5081374 209.45122755 C357.5063494 213.75432206 357.50870505 218.05729642 357.52285194 222.36037064 C357.63257696 258.927624 357.0700139 297.62576623 334.14453125 328.12939453 C333.72171875 328.71591797 333.29890625 329.30244141 332.86328125 329.90673828 C316.27592844 351.17133883 287.30370017 356.95388965 262.14453125 360.12939453 C254.97423198 360.95608597 247.81948648 361.40745427 240.60842896 361.68380737 C239.52242877 361.72593475 238.43642859 361.76806213 237.31751931 361.8114661 C225.45210645 362.23787312 213.59383549 362.2701775 201.72216797 362.25878906 C199.29277521 362.26014882 196.86338265 362.26193194 194.43399048 362.26409912 C188.58962441 362.26814006 182.74527289 362.26761208 176.90090643 362.26468648 C172.14149805 362.26240496 167.38209325 362.26213165 162.62268448 362.2632103 C161.93887204 362.26336353 161.25505961 362.26351676 160.55052558 362.26367464 C159.16032575 362.26399444 157.77012593 362.26431866 156.3799261 362.26464723 C143.42193304 362.26748145 130.46394712 362.26424733 117.50595523 362.25884686 C106.44325696 362.25437869 95.38056918 362.25515889 84.31787109 362.25976562 C71.39526133 362.26514453 58.47265777 362.26720906 45.55004704 362.26415336 C44.16628019 362.26383489 42.78251334 362.26352052 41.39874649 362.2632103 C40.71832999 362.26305602 40.0379135 362.26290175 39.33687832 362.2627428 C34.59497458 362.26188769 29.85307485 362.2633185 25.11117172 362.26568985 C18.70378536 362.26860793 12.29641855 362.26652161 5.88903427 362.26079559 C3.55724113 362.259489 1.22544631 362.25982566 -1.10634613 362.26205826 C-95.48132886 362.34399216 -95.48132886 362.34399216 -126.30859375 331.74658203 C-127.1490625 330.88291016 -127.98953125 330.01923828 -128.85546875 329.12939453 C-129.86867187 328.11232422 -129.86867187 328.11232422 -130.90234375 327.07470703 C-156.89161126 299.36048814 -155.17823663 254.97719423 -155.15705132 219.64203548 C-155.15596857 216.05691441 -155.16089787 212.47181055 -155.16565675 208.88669324 C-155.17668734 200.41240433 -155.17722615 191.93815977 -155.17114258 183.46386719 C-155.16510999 174.78936841 -155.17741062 166.11503214 -155.19871265 157.44056106 C-155.21646058 149.93074077 -155.2223094 142.42097157 -155.2190749 134.91113114 C-155.21728257 130.45330002 -155.21968863 125.9955848 -155.23378944 121.53777313 C-155.43627127 51.47918185 -155.43627127 51.47918185 -133.21875 28.40283203 C-108.69574402 4.81210561 -72.17108895 1.78362932 -39.72143555 0.57498169 C-38.59829043 0.53285431 -37.47514532 0.49072693 -36.31796551 0.44732296 C-24.2114881 0.02593597 -12.11248439 -0.01146877 0 0 Z M44.14453125 116.12939453 C42.91992772 118.5786016 43.010641 120.17740967 42.99736023 122.91642761 C42.99020493 123.92717346 42.98304962 124.93791931 42.97567749 125.97929382 C42.97298859 127.09254532 42.97029968 128.20579681 42.9675293 129.3527832 C42.9609581 130.52201324 42.9543869 131.69124329 42.94761658 132.89590454 C42.92784605 136.77971744 42.91621119 140.66351685 42.90625 144.54736328 C42.90220223 145.88510979 42.8980853 147.2228561 42.89389992 148.56060219 C42.87484395 154.84770204 42.86061572 161.13479014 42.85228795 167.42191333 C42.84252392 174.6733762 42.81622835 181.92453313 42.77578706 189.17588824 C42.74558876 194.78363747 42.73081544 200.39129922 42.72750694 205.99912816 C42.7251599 209.34686322 42.71426493 212.6940127 42.69104576 216.04170799 C42.6667241 219.78106438 42.66760735 223.51962209 42.67456055 227.2590332 C42.66175049 228.36216354 42.64894043 229.46529388 42.63574219 230.60185242 C42.67914614 237.00788614 43.30563644 240.93098837 47.14453125 246.12939453 C51.31600482 249.65197221 54.67900253 251.03675845 60.14453125 251.12939453 C66.40888026 249.59777438 72.01876798 246.83152404 77.64453125 243.75439453 C79.31073464 242.86030148 80.97742751 241.96712019 82.64453125 241.07470703 C83.52882812 240.59936523 84.413125 240.12402344 85.32421875 239.63427734 C90.40787476 236.92170328 95.52843871 234.28012082 100.64453125 231.62939453 C108.69570623 227.44983938 116.73475988 223.24884644 124.75512695 219.01049805 C130.57723869 215.93958206 136.4239764 212.91796958 142.27514648 209.90283203 C147.90835002 206.99766639 153.52813587 204.06689951 159.14453125 201.12939453 C160.46565918 200.44151855 160.46565918 200.44151855 161.81347656 199.73974609 C173.90148877 193.61105448 173.90148877 193.61105448 182.14453125 183.12939453 C182.51817771 177.52469762 182.35314123 173.9423095 179.14453125 169.12939453 C174.27324958 164.54195132 168.90197483 161.69688567 162.95703125 158.69189453 C160.8853984 157.62812803 158.81378459 156.56432444 156.7421875 155.50048828 C155.6608252 154.9486084 154.57946289 154.39672852 153.46533203 153.828125 C147.92847373 150.9957871 142.41325601 148.12185316 136.89453125 145.25439453 C134.61345092 144.07177555 132.33219952 142.88948646 130.05078125 141.70751953 C128.34341797 140.82290039 128.34341797 140.82290039 126.6015625 139.92041016 C125.46074219 139.329375 124.31992187 138.73833984 123.14453125 138.12939453 C118.56100549 135.75476565 113.97764649 133.37981564 109.39453125 131.00439453 C108.28311768 130.42842529 107.1717041 129.85245605 106.02661133 129.2590332 C97.61719658 124.89871006 89.21728487 120.52035872 80.82714844 116.12304688 C79.11059439 115.22516198 77.39239258 114.33041845 75.67236328 113.43920898 C73.92471216 112.53365092 72.18113383 111.62020498 70.44091797 110.70043945 C69.56580566 110.24644775 68.69069336 109.79245605 67.7890625 109.32470703 C67.01022705 108.91623535 66.2313916 108.50776367 65.42895508 108.08691406 C56.31754636 104.267854 49.52838987 108.55211202 44.14453125 116.12939453 Z " fill="#000000" transform="translate(154.85546875,74.87060546875)"/>
</svg>
